<?xml version="1.0" encoding="UTF-8" standalone="no"?>
<svg
   height="24"
   viewBox="0 0 24 24"
   width="24"
   version="1.1"
   id="svg2"
   sodipodi:docname="more_verti.svg"
   inkscape:version="1.3.1 (9b9bdc1480, 2023-11-25, custom)"
   xmlns:inkscape="http://www.inkscape.org/namespaces/inkscape"
   xmlns:sodipodi="http://sodipodi.sourceforge.net/DTD/sodipodi-0.dtd"
   xmlns="http://www.w3.org/2000/svg"
   xmlns:svg="http://www.w3.org/2000/svg">
  <defs
     id="defs2" />
  <sodipodi:namedview
     id="namedview2"
     pagecolor="#ffffff"
     bordercolor="#000000"
     borderopacity="0.25"
     inkscape:showpageshadow="2"
     inkscape:pageopacity="0.0"
     inkscape:pagecheckerboard="0"
     inkscape:deskcolor="#d1d1d1"
     inkscape:zoom="31.541667"
     inkscape:cx="12.015852"
     inkscape:cy="12"
     inkscape:window-width="1920"
     inkscape:window-height="957"
     inkscape:window-x="0"
     inkscape:window-y="27"
     inkscape:window-maximized="1"
     inkscape:current-layer="svg2" />
  <path
     d="M0 0h24v24H0z"
     fill="none"
     id="path1" />
  <path
     d="M 15,3 C 15,1.35 13.65,0 12,0 10.349999,0 9,1.35 9,3 c 0,1.65 1.349999,3 3,3 1.65,0 3,-1.35 3,-3 z m 0,17.999999 c 0,-1.65 -1.35,-3 -3,-3 -1.650001,0 -3,1.35 -3,3 0,1.65 1.349999,3 3,3 1.65,0 3,-1.35 3,-3 z m 0,-9 C 15,10.349999 13.65,9 12,9 c -1.650001,0 -3,1.349999 -3,2.999999 0,1.65 1.349999,3 3,3 1.65,0 3,-1.35 3,-3 z"
     id="path2"
     style="stroke-width:1.49999" />
</svg>
